<?xml version="1.0" standalone="no"?>
<!DOCTYPE svg PUBLIC "-//W3C//DTD SVG 20010904//EN"
 "http://www.w3.org/TR/2001/REC-SVG-20010904/DTD/svg10.dtd">
<svg version="1.0" xmlns="http://www.w3.org/2000/svg"
 width="1024.000000pt" height="1024.000000pt" viewBox="0 0 1024.000000 1024.000000"
 preserveAspectRatio="xMidYMid meet">
<metadata>
Created by potrace 1.14, written by Peter Selinger 2001-2017
</metadata>
<g transform="translate(0.000000,1024.000000) scale(0.100000,-0.100000)"
fill="#000000" stroke="none">
<path d="M0 5120 l0 -5120 5120 0 5120 0 0 5120 0 5120 -5120 0 -5120 0 0
-5120z m5009 3595 c28 8 28 -16 1 -33 -17 -10 -23 -10 -36 3 -17 17 -28 20
-19 6 11 -19 -34 -35 -47 -16 -5 6 -8 6 -8 -2 0 -6 5 -15 10 -18 8 -5 7 -11
-1 -21 -9 -11 -7 -14 15 -14 15 0 25 5 24 13 -2 6 4 11 12 9 31 -7 34 -7 35 5
0 21 13 26 50 19 42 -8 37 -29 -6 -22 -16 2 -27 0 -23 -5 3 -5 10 -7 15 -4 16
11 10 -7 -8 -22 -10 -8 -12 -12 -5 -8 16 8 52 -3 52 -17 0 -6 -11 -8 -25 -6
-18 4 -26 0 -31 -14 -6 -19 -6 -19 -20 -1 -13 17 -13 17 -14 0 0 -10 -4 -15
-10 -12 -5 3 -10 -1 -10 -9 0 -8 5 -18 10 -21 6 -3 10 -1 10 6 0 8 5 6 13 -4
11 -16 14 -16 49 3 35 19 58 13 43 -10 -3 -5 -1 -10 4 -10 6 0 11 -11 11 -25
0 -14 -6 -25 -12 -25 -8 0 -9 -3 -3 -8 12 -8 19 -55 7 -48 -4 2 -8 -4 -8 -15
0 -10 4 -19 9 -19 5 0 6 -10 2 -22 -3 -13 -7 -28 -7 -35 -1 -6 -21 -23 -45
-39 -23 -15 -43 -28 -43 -30 0 -1 20 4 46 13 48 16 64 12 45 -11 -7 -8 -10
-19 -7 -24 3 -5 -6 -8 -19 -6 -14 1 -23 -2 -19 -7 3 -5 -2 -9 -10 -9 -8 0 -18
-4 -21 -10 -4 -6 3 -6 21 0 29 11 37 8 40 -16 2 -11 -3 -14 -17 -11 -10 3 -19
1 -19 -5 0 -6 -6 -8 -14 -5 -7 3 -22 0 -32 -8 -11 -7 -31 -11 -46 -10 -15 2
-32 -3 -39 -11 -6 -7 -15 -12 -19 -9 -5 3 -11 1 -15 -5 -4 -6 -11 -8 -16 -5
-5 4 -9 1 -9 -5 0 -7 -7 -10 -14 -7 -11 4 -13 1 -9 -10 4 -11 3 -14 -6 -9 -6
4 -18 2 -26 -4 -8 -7 -15 -9 -15 -4 0 4 -10 -2 -23 -14 -13 -12 -27 -19 -30
-15 -4 3 -7 -1 -7 -11 0 -12 -7 -16 -22 -14 -17 2 -22 -1 -20 -15 2 -12 -8
-22 -32 -32 -19 -8 -40 -23 -45 -32 -6 -10 -11 -12 -11 -5 0 19 39 54 53 46 7
-4 9 -4 5 1 -4 4 -2 15 5 23 8 11 2 10 -21 -4 -35 -20 -51 -41 -57 -76 -6 -29
-17 -39 -34 -28 -12 7 -12 11 2 25 10 9 22 26 28 38 9 20 9 20 -4 5 -8 -10
-19 -18 -26 -18 -6 0 -11 -7 -11 -15 0 -8 -3 -14 -7 -14 -23 4 -25 -3 -5 -17
18 -13 21 -19 11 -30 -6 -8 -17 -14 -24 -14 -6 0 -38 -27 -71 -61 -79 -81 -79
-81 -87 -101 -3 -10 -11 -18 -17 -18 -6 0 -9 -3 -7 -7 3 -5 -1 -13 -8 -20 -18
-16 -38 6 -25 27 6 8 10 20 9 25 0 6 -6 -1 -14 -15 -12 -21 -12 -28 1 -47 13
-20 12 -23 -7 -34 -13 -7 -19 -7 -15 -1 3 6 1 14 -5 18 -8 4 -7 9 2 15 8 5 10
9 4 9 -16 0 -36 -16 -33 -26 1 -5 -5 -23 -14 -40 -9 -17 -15 -39 -13 -50 1
-10 -4 -29 -11 -41 -8 -13 -12 -23 -8 -23 3 0 -1 -11 -10 -25 -17 -26 -13 -51
6 -39 7 4 8 2 4 -5 -6 -8 -12 -9 -20 -2 -9 8 -16 4 -26 -14 -7 -14 -16 -25
-20 -25 -4 0 -5 -11 -3 -24 3 -13 -1 -27 -8 -31 -8 -6 -10 -4 -4 5 5 9 4 11
-4 6 -6 -4 -11 -13 -10 -19 3 -26 -2 -36 -15 -31 -12 5 -12 9 -1 31 7 14 11
32 8 41 -4 8 -2 13 3 10 5 -4 10 4 10 15 1 12 15 51 32 87 16 36 33 76 37 90
13 42 84 180 140 270 29 48 78 135 109 195 31 61 62 115 69 120 7 6 13 17 15
25 2 8 8 20 14 25 8 7 9 6 4 -2 -4 -7 -5 -13 -2 -13 3 0 10 10 17 21 9 17 8
20 -2 14 -8 -6 -10 -4 -5 4 5 7 15 10 22 7 11 -4 13 -2 5 11 -6 12 -4 25 7 42
32 52 184 251 191 251 4 0 15 13 24 30 10 16 23 29 30 27 6 -1 11 5 12 14 0
28 108 149 127 143 9 -2 20 0 23 7 6 8 9 8 15 -1 4 -7 16 -9 29 -5z m77 -4
c-3 -5 5 -11 19 -13 13 -3 27 0 30 6 3 6 3 1 1 -12 -3 -15 0 -20 7 -15 23 14
35 11 30 -8 -4 -15 -8 -17 -19 -8 -8 6 -14 8 -14 4 0 -4 -12 0 -26 10 -18 12
-24 13 -19 4 3 -8 0 -5 -9 5 -14 17 -14 36 0 36 3 0 3 -4 0 -9z m129 -21 c-3
-5 -1 -10 6 -10 7 0 10 -3 6 -6 -9 -9 -28 6 -22 17 4 5 8 9 11 9 3 0 2 -4 -1
-10z m80 -18 c-3 -3 -11 0 -18 7 -9 10 -8 11 6 5 10 -3 15 -9 12 -12z m-208
-54 c-3 -8 -6 -5 -6 6 -1 11 2 17 5 13 3 -3 4 -12 1 -19z m-17 8 c0 -3 -4 -8
-10 -11 -5 -3 -10 -1 -10 4 0 6 5 11 10 11 6 0 10 -2 10 -4z m77 -22 c-6 -6
-47 9 -47 17 0 5 11 3 25 -3 14 -6 24 -13 22 -14z m61 -9 c-3 -3 -9 2 -12 12
-6 14 -5 15 5 6 7 -7 10 -15 7 -18z m42 -8 c0 -7 -4 -6 -10 3 -8 12 -10 12
-10 1 0 -8 -3 -12 -6 -8 -9 9 6 28 17 22 5 -4 9 -12 9 -18z m-114 -15 c0 -10
-6 -19 -13 -19 -17 0 -17 24 0 30 6 3 12 6 12 6 1 1 1 -7 1 -17z m269 -2 c3
-5 1 -10 -4 -10 -6 0 -11 5 -11 10 0 6 2 10 4 10 3 0 8 -4 11 -10z m-242 -20
c-3 -11 -7 -20 -9 -20 -2 0 -4 9 -4 20 0 11 4 20 9 20 5 0 7 -9 4 -20z m1 -71
c-3 -5 -10 -6 -16 -3 -6 4 -14 0 -19 -7 -7 -11 -9 -11 -9 -1 0 22 24 41 37 30
7 -6 10 -14 7 -19z m76 -17 c0 -5 -7 -9 -15 -9 -8 0 -12 4 -9 9 3 4 9 8 15 8
5 0 9 -4 9 -8z m-83 -51 c1 -14 -3 -18 -13 -14 -11 4 -12 9 -3 19 15 18 14 18
16 -5z m72 7 c6 -7 17 -13 24 -13 7 -1 11 -7 9 -14 -2 -10 4 -12 22 -7 18 4
24 3 21 -7 -3 -7 7 -17 25 -24 16 -6 30 -17 29 -25 0 -10 -2 -10 -6 0 -2 6 -9
10 -14 6 -5 -3 -9 0 -9 5 0 6 -8 11 -17 11 -16 0 -16 -2 -3 -11 13 -9 13 -10
-2 -6 -25 9 -44 -19 -27 -40 11 -15 11 -16 -1 -6 -11 10 -19 9 -39 -10 -17
-14 -21 -16 -11 -4 8 11 15 29 17 40 3 22 2 21 -10 -1 -7 -12 -16 -20 -20 -16
-11 11 -36 -16 -31 -34 5 -14 3 -14 -10 2 -8 10 -20 15 -26 11 -6 -3 -10 -3
-9 2 3 20 -2 34 -11 28 -5 -3 -10 -2 -10 3 0 6 8 13 18 17 16 6 16 7 0 19 -20
15 -8 42 15 33 9 -3 17 2 20 14 7 24 27 25 27 0 0 -14 6 -17 25 -13 14 2 28 9
32 15 3 5 1 7 -5 3 -6 -3 -13 -2 -17 4 -4 6 -10 8 -15 5 -4 -3 -13 2 -20 10
-10 12 -10 15 2 15 8 0 20 -6 27 -12z m46 -199 c33 -11 69 -23 80 -28 78 -33
105 -48 110 -60 4 -11 3 -11 -9 -2 -8 7 -21 9 -28 5 -7 -4 -10 -4 -6 1 13 14
-26 34 -80 41 -29 3 -52 10 -52 13 0 6 -13 7 -73 2 -10 0 -15 -5 -12 -11 3 -5
-1 -10 -10 -10 -9 0 -14 4 -11 8 2 4 -5 14 -17 21 -17 10 -19 10 -10 1 10 -11
7 -18 -13 -35 -31 -27 -19 -39 24 -23 24 9 34 9 46 -1 9 -8 16 -18 16 -23 0
-6 -6 -5 -15 2 -9 8 -28 10 -55 5 -48 -8 -58 7 -35 51 8 17 11 30 5 32 -6 2
-10 13 -10 24 0 18 4 20 48 14 26 -4 74 -16 107 -27z m-175 -119 c0 -4 -15 -6
-34 -4 -23 1 -36 -3 -40 -12 -4 -11 -10 -12 -25 -4 -26 13 -31 13 -31 -5 0
-18 -16 -20 -23 -2 -3 7 -6 4 -6 -6 -1 -11 -8 -18 -18 -16 -31 3 -38 -1 -23
-11 11 -8 9 -9 -11 -6 -18 3 -32 -3 -45 -17 -10 -12 -18 -25 -16 -29 1 -5 -5
-8 -13 -8 -9 0 -18 -6 -21 -14 -3 -8 -12 -12 -20 -9 -8 3 -23 -2 -33 -11 -15
-13 -20 -14 -36 -3 -17 13 -16 15 16 40 67 51 226 120 292 127 64 6 87 4 87
-10z m68 -9 c9 -5 2 -8 -20 -9 -23 -1 -28 2 -18 8 18 12 22 12 38 1z m59 -7
c-3 -3 -12 -4 -19 -1 -8 3 -5 6 6 6 11 1 17 -2 13 -5z m-542 -174 c2 -18 1
-29 -2 -26 -9 9 -44 -25 -37 -35 3 -5 -2 -9 -11 -9 -12 0 -15 5 -11 16 7 19
-52 -31 -113 -95 -24 -25 -37 -37 -30 -26 8 11 19 23 24 27 6 4 7 8 2 8 -12 0
-50 -23 -82 -51 -63 -55 -62 -35 2 24 37 34 76 71 87 82 29 28 159 125 163
121 2 -2 5 -18 8 -36z m-61 -86 c4 -12 2 -15 -9 -10 -8 3 -15 0 -15 -6 0 -6
-3 -8 -6 -5 -4 4 -1 13 6 22 16 19 16 19 24 -1z m-168 -111 c-10 -10 -19 5
-10 18 6 11 8 11 12 0 2 -7 1 -15 -2 -18z m-73 -74 c-29 -28 -53 -54 -53 -58
0 -4 -12 -18 -27 -32 l-27 -24 24 35 c30 46 111 130 125 130 5 0 -14 -23 -42
-51z m-126 -72 c-3 -10 -37 -20 -37 -11 0 3 6 11 13 18 13 15 30 11 24 -7z
m-7 -31 c0 -9 -30 -14 -35 -6 -4 6 3 10 14 10 12 0 21 -2 21 -4z m568 -169
c38 -25 73 -50 77 -56 3 -6 24 -20 46 -31 69 -36 41 -72 -34 -43 -45 17 -151
84 -206 131 -23 19 -32 33 -26 41 13 22 67 6 143 -42z m906 -16 c3 -5 -9 -12
-28 -15 -19 -4 -55 -18 -81 -31 -26 -14 -45 -20 -43 -14 5 15 105 69 129 69
10 0 20 -4 23 -9z m-970 -63 c35 -29 98 -82 141 -117 125 -103 53 -97 -105 9
-64 43 -129 70 -168 70 -15 0 -46 -11 -70 -25 l-43 -25 7 23 c22 73 92 132
147 122 16 -3 57 -28 91 -57z m-672 -74 c-4 -24 -26 -32 -37 -14 -3 5 0 7 9 4
15 -6 17 11 3 33 -5 7 -1 10 11 6 14 -3 18 -11 14 -29z m-27 -44 c-11 -5 -15
-9 -8 -9 7 -1 10 -8 6 -17 -4 -10 -9 -12 -16 -5 -14 14 -1 41 20 40 16 0 16
-1 -2 -9z m-23 -67 c-6 -2 -10 -9 -6 -14 3 -5 0 -9 -6 -9 -6 0 -9 -3 -6 -8 2
-4 -2 -18 -10 -32 -11 -19 -14 -20 -10 -5 3 11 8 32 12 48 4 16 13 27 23 26
10 0 11 -2 3 -6z m-45 -125 c-3 -8 -6 -5 -6 6 -1 11 2 17 5 13 3 -3 4 -12 1
-19z m605 -160 c15 -10 48 -42 73 -71 l46 -52 -26 -22 c-48 -42 -174 -26 -219
28 -43 51 -31 109 27 134 36 16 59 12 99 -17z m58 7 c11 -13 10 -14 -4 -9 -9
3 -16 10 -16 15 0 13 6 11 20 -6z m536 -41 c15 -22 16 -38 6 -135 -13 -140
-42 -179 -95 -132 -18 17 -19 17 -16 -19 5 -52 -8 -58 -27 -12 l-16 39 -34
-40 -34 -40 0 46 c0 40 7 56 53 120 29 41 61 95 71 122 30 79 62 98 92 51z
m-242 -110 c11 -29 6 -33 -60 -54 -70 -21 -114 -26 -114 -11 0 9 82 64 110 74
30 11 58 7 64 -9z m88 -304 c10 -20 18 -58 18 -87 0 -51 -1 -53 -27 -53 -90 1
-243 58 -243 91 0 11 15 9 70 -7 25 -7 25 -7 7 13 -16 18 -17 24 -5 42 13 22
26 27 83 34 64 9 79 3 97 -33z m-1042 -175 c-15 -9 -19 -15 -10 -15 12 0 11
-3 -2 -11 -10 -5 -18 -19 -18 -29 0 -10 -9 -25 -21 -34 -26 -18 -60 -64 -38
-51 8 4 23 15 33 24 18 15 18 15 7 -6 -14 -27 -4 -30 15 -5 12 16 13 15 14 -5
0 -13 -4 -23 -10 -23 -15 0 -12 -21 5 -34 13 -9 10 -11 -14 -11 -17 0 -27 4
-24 11 2 7 -1 15 -6 19 -6 3 -8 11 -5 17 4 6 2 8 -4 4 -7 -4 -8 -17 -2 -36 8
-27 6 -34 -11 -32 -3 1 -6 -6 -6 -14 0 -7 9 -14 19 -14 12 0 16 4 12 11 -3 6
0 15 7 20 26 16 30 9 13 -22 -12 -23 -20 -30 -36 -26 -14 4 -22 0 -25 -14 -3
-10 -9 -16 -14 -13 -5 3 -9 0 -9 -5 0 -6 5 -11 10 -11 6 0 10 -6 10 -14 0 -8
5 -18 12 -22 8 -5 9 -2 5 9 -3 9 -2 19 4 22 5 4 8 1 7 -7 -2 -8 6 -12 22 -10
22 2 21 1 -8 -14 -22 -11 -32 -23 -29 -34 3 -11 -3 -16 -19 -16 -12 0 -20 4
-18 8 3 4 -2 8 -11 8 -9 0 -13 -4 -10 -10 3 -5 -5 -15 -19 -21 -20 -9 -29 -9
-41 1 -8 7 -15 8 -15 2 0 -18 31 -23 72 -11 22 5 43 8 46 5 3 -3 -3 -6 -14 -6
-14 0 -16 -2 -5 -9 10 -7 8 -12 -10 -25 -13 -9 -18 -16 -12 -16 6 0 9 -9 6
-20 -3 -11 -9 -20 -13 -20 -13 0 -5 51 10 60 19 12 -1 18 -50 14 -42 -3 -45
-1 -45 21 0 14 5 25 12 25 6 0 14 4 17 8 2 4 -8 7 -22 6 -15 0 -28 -6 -28 -12
-1 -7 -3 -15 -4 -19 -1 -5 -2 -12 -1 -17 1 -5 -6 -3 -15 5 -10 8 -15 9 -11 2
4 -7 -1 -14 -13 -18 -21 -7 -28 -25 -8 -25 6 0 9 -2 7 -5 -11 -10 -50 8 -45
22 3 8 1 11 -4 8 -6 -3 -10 -12 -10 -18 0 -7 -9 -18 -20 -25 -21 -13 -18 -38
3 -26 7 4 3 -2 -8 -13 -20 -20 -20 -20 -23 9 -2 15 -8 28 -13 28 -6 0 -8 -4
-5 -9 3 -5 -2 -12 -12 -16 -16 -7 -15 -8 3 -15 16 -7 17 -9 3 -9 -9 -1 -22 -9
-27 -18 -10 -17 -10 -17 -11 1 0 16 -2 17 -17 5 -9 -8 -14 -9 -11 -4 4 6 2 17
-4 25 -8 12 -9 12 -4 -2 3 -11 -2 -22 -15 -29 -17 -9 -18 -13 -7 -27 11 -14
10 -15 -7 -8 -29 11 -27 11 -57 -4 -16 -7 -28 -17 -28 -22 0 -5 -5 -6 -11 -3
-6 5 -4 12 8 21 16 13 15 13 -9 4 -26 -9 -28 -8 -28 16 0 16 4 23 11 18 7 -4
7 1 -1 16 -6 12 -9 28 -6 36 3 8 1 14 -4 14 -5 0 -8 15 -7 34 2 24 17 53 51
95 27 33 53 58 58 55 4 -3 7 0 6 8 -2 7 5 12 14 12 10 -1 16 3 15 10 -1 6 6
10 15 10 10 -1 16 2 13 6 -9 14 67 63 200 130 71 37 144 74 160 83 30 16 141
55 160 56 6 0 -1 -6 -15 -14z m65 -15 c3 -6 -1 -7 -9 -4 -18 7 -21 14 -7 14 6
0 13 -4 16 -10z m-35 -22 c-14 -5 -28 -14 -32 -21 -6 -9 -8 -9 -8 1 0 7 7 15
15 18 8 4 13 10 10 14 -3 5 5 6 17 2 21 -5 21 -5 -2 -14z m941 -47 c41 -11 86
-25 100 -30 24 -10 23 -10 -6 -10 -16 0 -75 15 -130 34 -107 38 -89 41 36 6z
m-926 -1 c3 -6 -1 -7 -9 -4 -18 7 -21 14 -7 14 6 0 13 -4 16 -10z m-7 -23 c13
5 14 3 5 -7 -13 -14 -33 -5 -32 13 0 9 2 9 5 0 3 -7 13 -9 22 -6z m-18 -37 c0
-5 7 -10 15 -10 8 0 15 -4 15 -8 0 -10 -30 -9 -48 2 -7 4 -10 12 -7 17 8 12
25 12 25 -1z m-15 -69 c-3 -6 -11 -11 -16 -11 -5 0 -4 6 3 14 14 16 24 13 13
-3z m1003 -38 c12 -13 22 -36 22 -51 0 -19 -3 -23 -9 -13 -6 9 -11 10 -15 2
-7 -10 -56 -16 -56 -7 0 2 -3 12 -7 22 -5 13 -3 15 8 9 12 -8 12 -6 0 9 -8 9
-16 28 -17 42 -2 21 0 23 24 17 15 -3 37 -17 50 -30z m-1051 -28 c0 -8 -4 -12
-9 -9 -5 3 -6 10 -3 15 9 13 12 11 12 -6z m18 -115 c-3 -5 -11 -10 -16 -10 -6
0 -7 5 -4 10 3 6 11 10 16 10 6 0 7 -4 4 -10z m-20 -38 c-3 -3 -11 0 -18 7 -9
10 -8 11 6 5 10 -3 15 -9 12 -12z m-188 -18 c-3 -3 -12 -4 -19 -1 -8 3 -5 6 6
6 11 1 17 -2 13 -5z m133 -8 c0 -2 -7 -7 -16 -10 -8 -3 -12 -2 -9 4 6 10 25
14 25 6z m-257 -17 c-6 -6 -9 -19 -6 -28 3 -13 2 -12 -7 2 -6 9 -15 15 -21 12
-5 -4 -9 -4 -9 0 0 3 10 10 23 15 30 12 33 12 20 -1z m-343 -54 c-14 -17 -30
-20 -30 -4 0 5 5 7 10 4 6 -3 10 -1 10 4 0 6 5 11 11 11 8 0 8 -5 -1 -15z
m-50 -71 c0 -8 -19 -13 -24 -6 -3 5 1 9 9 9 8 0 15 -2 15 -3z m-27 -101 c-4
-11 -3 -14 5 -9 7 4 10 2 6 -7 -2 -7 0 -26 5 -40 17 -45 3 -30 -18 19 -14 30
-19 55 -14 72 6 25 6 25 14 4 5 -12 5 -30 2 -39z m-13 -45 c0 -5 -4 -8 -10 -8
-5 0 -10 10 -10 23 0 18 2 19 10 7 5 -8 10 -18 10 -22z m610 16 c0 -2 -9 -4
-20 -4 -11 0 -20 4 -20 9 0 5 9 7 20 4 11 -3 20 -7 20 -9z m-596 -49 c3 -8 1
-15 -4 -15 -6 0 -10 7 -10 15 0 8 2 15 4 15 2 0 6 -7 10 -15z m116 -165 c0 -5
-4 -10 -9 -10 -6 0 -13 5 -16 10 -3 6 1 10 9 10 9 0 16 -4 16 -10z m1337 -692
c-2 -24 -4 -7 -4 37 0 44 2 63 4 43 2 -21 2 -57 0 -80z m31 -284 c35 -56 37
-70 21 -176 -13 -89 -39 -144 -86 -189 l-37 -34 37 46 c42 53 67 107 67 146 0
15 5 53 12 84 12 57 12 58 -25 117 -36 59 -37 62 -35 154 l2 93 5 -95 c5 -86
9 -101 39 -146z m402 223 c0 -2 -10 -12 -22 -23 l-23 -19 19 23 c18 21 26 27
26 19z m-510 -662 c0 -8 -4 -15 -10 -15 -5 0 -7 7 -4 15 4 8 8 15 10 15 2 0 4
-7 4 -15z m-4 -37 c5 -7 3 -8 -6 -3 -10 6 -12 4 -7 -8 3 -10 3 -17 -2 -17 -13
0 -20 11 -14 26 6 17 19 18 29 2z m805 -35 c-12 -20 -14 -14 -5 12 4 9 9 14
11 11 3 -2 0 -13 -6 -23z m-52 -142 c-17 -45 -32 -93 -33 -107 0 -13 -4 -24
-8 -24 -10 0 -22 -41 -20 -65 2 -17 1 -18 -7 -4 -10 16 16 103 71 236 34 83
32 55 -3 -36z m-69 -241 c0 -4 -6 -10 -14 -13 -12 -5 -14 2 -7 31 2 7 21 -10
21 -18z m-56 -23 c7 -6 6 -7 -4 -4 -8 2 -16 12 -17 23 -2 13 -1 15 4 4 3 -8
11 -19 17 -23z m-1926 -314 c-32 -2 -84 -2 -115 0 -32 2 -6 3 57 3 63 0 89 -1
58 -3z m1647 -17 c17 -1 -386 -3 -895 -2 -509 0 -855 3 -770 6 155 5 1609 2
1665 -4z m288 -13 c-35 -2 -91 -2 -125 0 -35 2 -7 3 62 3 69 0 97 -1 63 -3z
m-2252 -191 c-5 -17 -14 -26 -24 -24 -9 1 -32 -13 -51 -33 -19 -19 -42 -35
-50 -35 -18 0 -29 -42 -13 -52 7 -4 2 -10 -15 -17 -14 -5 -29 -15 -33 -20 -10
-17 -35 -13 -35 5 0 18 142 168 184 195 36 22 47 17 37 -19z m84 18 c3 -5 -3
-10 -15 -10 -12 0 -18 5 -15 10 3 6 10 10 15 10 5 0 12 -4 15 -10z m25 -42 c0
-18 -2 -20 -10 -8 -8 12 -10 12 -16 -3 -3 -9 -12 -17 -19 -17 -7 0 -19 -8 -26
-17 -12 -14 -12 -16 0 -8 7 4 4 -6 -9 -23 -16 -22 -21 -38 -16 -56 7 -30 -8
-35 -23 -8 -7 13 -6 23 1 30 9 9 8 12 -4 12 -24 0 -30 28 -12 62 13 25 20 29
46 26 21 -4 33 0 41 14 17 26 47 23 47 -4z m-240 -28 c0 -5 -5 -10 -11 -10 -5
0 -7 5 -4 10 3 6 8 10 11 10 2 0 4 -4 4 -10z m4305 -35 c22 -7 52 -16 67 -19
30 -7 59 -47 39 -54 -6 -2 -9 -8 -5 -13 3 -5 0 -9 -6 -9 -6 0 -9 -4 -6 -9 3
-4 -6 -6 -19 -3 -20 3 -27 -1 -35 -22 -5 -15 -16 -26 -22 -25 -7 1 -21 -1 -31
-6 -27 -11 -30 -1 -7 28 13 17 27 24 38 21 10 -4 13 -2 7 3 -13 10 -14 62 -1
60 5 -1 10 3 13 9 3 8 -8 9 -37 4 -22 -4 -40 -4 -40 0 0 4 -10 12 -23 17 -13
6 -24 18 -24 27 0 17 14 15 92 -9z m-4205 -57 c0 -5 -7 -8 -15 -8 -17 0 -18 2
-9 25 5 13 8 14 15 3 5 -7 9 -16 9 -20z m4376 -35 c-4 -4 -12 -1 -19 7 -9 10
-9 11 1 6 7 -4 12 -2 13 6 0 11 2 11 6 0 3 -7 2 -16 -1 -19z m-4381 -3 c3 -5
2 -10 -4 -10 -5 0 -13 5 -16 10 -3 6 -2 10 4 10 5 0 13 -4 16 -10z m4420 0 c3
-5 2 -10 -4 -10 -5 0 -13 5 -16 10 -3 6 -2 10 4 10 5 0 13 -4 16 -10z m-4377
-31 c3 -12 2 -12 -7 1 -5 8 -12 12 -16 9 -3 -3 3 -13 13 -22 15 -13 25 -15 53
-7 23 7 35 7 37 0 2 -6 8 -8 13 -4 5 3 9 -20 9 -52 l0 -57 -23 21 c-13 12 -36
22 -53 23 -52 2 -85 20 -82 43 2 14 -2 20 -12 18 -8 -2 -12 0 -8 3 4 4 3 15
-2 24 -7 15 -3 17 33 16 26 -1 42 -6 45 -16z m4433 0 c11 -11 18 -23 15 -26
-8 -9 -27 8 -20 18 4 7 -7 8 -30 4 -35 -7 -52 7 -23 18 24 10 37 7 58 -14z
m-238 -61 c-15 -7 -30 -8 -44 -2 -17 8 -13 10 23 11 37 1 40 0 21 -9z m213
-33 c-14 -15 -30 -24 -37 -20 -6 4 -15 1 -20 -6 -6 -10 -9 -11 -9 -1 0 22 -19
13 -26 -13 -3 -14 -12 -25 -19 -25 -7 0 -15 -6 -18 -14 -3 -7 -14 -16 -25 -18
-15 -4 -18 -1 -14 14 5 22 83 78 109 78 10 0 32 8 48 19 39 24 42 20 11 -14z
m-285 16 c-17 -11 1 -23 23 -15 9 3 16 2 16 -4 0 -10 -46 -9 -56 1 -9 8 5 27
19 27 8 0 8 -3 -2 -9z m-4081 -55 c0 -3 -7 -3 -15 0 -8 4 -15 13 -15 21 0 12
2 12 15 -1 8 -8 15 -17 15 -20z m4083 -12 c-3 -8 -12 -14 -20 -14 -10 0 -14
-7 -10 -19 3 -14 -2 -20 -19 -24 -30 -5 -30 -5 2 49 21 35 29 42 40 34 7 -7
10 -18 7 -26z m232 -25 c-4 -5 -14 -8 -23 -8 -15 1 -15 2 1 6 9 2 14 9 11 15
-4 7 -2 8 5 4 6 -4 9 -12 6 -17z m-141 -78 c-10 -10 -22 -17 -26 -14 -19 10
-48 11 -48 1 0 -6 -3 -8 -6 -5 -15 15 20 37 59 37 40 0 40 0 21 -19z m346
-676 c23 -8 54 -12 69 -9 20 4 22 3 11 -5 -12 -8 -8 -13 23 -26 20 -8 67 -22
104 -31 75 -17 103 -30 103 -45 0 -6 -9 -13 -20 -16 -11 -3 -20 -9 -20 -13 0
-8 -51 -34 -62 -32 -5 1 -8 -3 -8 -9 0 -5 -4 -7 -10 -4 -9 6 -15 -8 -11 -29 1
-5 -6 -5 -16 -1 -10 5 -36 10 -58 13 -65 6 -96 -29 -131 -147 -4 -11 -9 -9
-20 8 -29 40 -62 25 -123 -57 -30 -40 -57 -69 -60 -65 -3 5 -32 9 -65 8 -83 0
-90 15 -48 99 18 35 32 71 32 80 0 33 50 170 76 207 52 76 146 105 234 74z
m353 -56 c32 -8 36 -13 27 -24 -16 -19 -53 -13 -120 19 l-55 26 55 -5 c30 -3
72 -11 93 -16z m-143 -287 c-15 -56 -50 -82 -109 -81 -25 1 -38 3 -29 6 9 2
15 10 12 16 -3 9 9 13 41 13 50 1 69 17 80 67 4 16 9 26 12 24 2 -3 -1 -23 -7
-45z m-320 -184 c0 -4 -7 -8 -15 -8 -10 0 -15 10 -15 28 1 26 1 26 15 8 8 -11
15 -23 15 -28z m41 -11 c-8 -8 -11 -3 -11 19 1 25 2 27 11 11 8 -14 8 -22 0
-30z m-271 -72 c-6 -7 -13 -23 -15 -35 -2 -13 -15 -38 -27 -57 -19 -27 -28
-33 -50 -30 -16 2 -28 -1 -28 -6 0 -6 -3 -8 -6 -5 -3 4 0 16 6 28 6 12 14 19
17 17 5 -6 33 15 63 46 9 10 23 37 30 60 11 34 15 38 18 19 2 -13 -1 -29 -8
-37z m-4673 -66 c22 -8 25 -12 13 -20 -12 -8 -11 -9 5 -7 19 2 106 -47 113
-65 2 -4 15 -21 28 -36 26 -31 29 -41 14 -41 -5 0 -10 8 -10 17 0 9 -3 13 -7
10 -3 -4 -27 11 -52 34 -25 22 -53 46 -61 53 -8 7 -36 18 -62 25 -39 9 -55 8
-93 -5 -26 -8 -55 -16 -65 -17 -10 -1 -16 -5 -14 -9 3 -5 -8 -11 -25 -14 -16
-4 -32 -12 -35 -20 -3 -8 -12 -11 -23 -7 -10 3 -15 2 -11 -2 10 -11 -83 -74
-99 -68 -7 3 -13 14 -13 24 0 16 4 17 25 9 19 -7 23 -6 18 5 -3 8 -10 12 -16
8 -6 -4 -7 -1 -3 6 5 7 15 10 23 7 8 -3 12 -2 9 3 -8 13 21 34 35 25 8 -5 9
-3 4 6 -6 9 -2 10 15 5 16 -5 20 -4 15 5 -4 7 1 13 14 17 11 3 19 9 16 13 -6
9 19 21 55 26 14 2 37 8 50 13 34 13 102 13 137 0z m4513 -68 c0 -17 -18 -21
-24 -6 -3 9 0 15 9 15 8 0 15 -4 15 -9z m1163 -18 c-7 -2 -19 -2 -25 0 -7 3
-2 5 12 5 14 0 19 -2 13 -5z m-1003 -58 c14 1 31 -3 39 -9 8 -6 16 -10 18 -8
11 8 23 -1 23 -19 0 -13 -4 -18 -12 -13 -7 5 -25 7 -40 6 -17 -1 -27 2 -26 9
2 6 -4 14 -12 16 -13 4 -13 3 0 -6 8 -6 10 -11 5 -11 -16 0 -35 22 -35 40 0
10 3 11 8 4 4 -6 18 -10 32 -9z m-4079 -16 c13 -11 18 -17 11 -14 -8 4 -35 9
-60 12 -26 2 -53 6 -59 8 -7 2 -12 -1 -10 -7 1 -7 -14 -12 -38 -13 -23 0 -52
-9 -65 -18 -14 -9 -31 -17 -40 -17 -8 0 -21 -9 -28 -20 -11 -18 -6 -24 50 -66
60 -43 66 -45 113 -40 28 3 60 8 72 12 22 6 22 6 9 -32 -14 -41 -19 -43 -83
-31 -53 9 -133 54 -133 75 0 7 -12 17 -26 22 -15 6 -22 15 -18 21 4 7 1 10 -7
7 -7 -2 -23 5 -35 16 -12 12 -32 29 -45 38 -16 13 -20 21 -12 29 7 7 16 3 31
-16 l21 -26 53 28 c86 45 109 51 194 52 69 1 85 -2 105 -20z m-561 -14 c51
-26 63 -48 34 -59 -18 -7 -87 47 -90 71 -3 17 -1 17 56 -12z m4608 -10 c55
-28 152 -36 152 -12 0 8 3 8 9 -2 13 -21 2 -41 -23 -41 -42 1 -171 37 -169 47
1 6 -4 14 -13 17 -8 3 -12 2 -9 -4 3 -6 -3 -10 -14 -10 -12 0 -21 7 -21 15 0
22 32 18 88 -10z m-5034 6 c3 -5 -10 -21 -28 -35 -38 -28 -55 -34 -37 -12 9
11 9 15 -1 19 -7 2 -3 2 10 0 26 -4 28 5 5 23 -16 12 -15 13 14 14 17 0 34 -4
37 -9z m4924 2 c-10 -2 -26 -2 -35 0 -10 3 -2 5 17 5 19 0 27 -2 18 -5z
m-5001 -9 c-3 -3 -12 -4 -19 -1 -8 3 -5 6 6 6 11 1 17 -2 13 -5z m-27 -24 c-8
-5 -19 -10 -25 -10 -5 0 -3 5 5 10 8 5 20 10 25 10 6 0 3 -5 -5 -10z m300 -64
c0 -3 -4 -8 -10 -11 -5 -3 -10 -1 -10 4 0 6 5 11 10 11 6 0 10 -2 10 -4z
m-381 -136 c0 -10 -3 -8 -9 5 -12 27 -12 43 0 25 5 -8 9 -22 9 -30z m431 21
c0 -5 -7 -12 -16 -15 -8 -3 -12 -2 -9 3 3 5 -3 12 -12 14 -11 3 -8 5 10 6 15
0 27 -3 27 -8z m493 -30 c31 -11 80 -23 109 -26 52 -7 77 -15 45 -15 -9 0 -17
-6 -18 -12 0 -10 -2 -10 -6 0 -2 6 -9 9 -15 6 -6 -4 -30 -8 -53 -10 -138 -9
-195 -23 -195 -48 0 -5 -7 -17 -15 -26 -12 -13 -12 -20 -1 -42 12 -23 12 -26
-3 -24 -9 2 -22 14 -28 27 -10 18 -13 20 -13 7 0 -21 -18 -24 -26 -4 -15 39
57 113 121 123 19 3 35 10 35 15 0 6 12 3 26 -7 17 -11 37 -15 62 -11 20 3 39
5 42 6 3 0 -2 5 -10 10 -20 13 -53 13 -45 0 3 -5 1 -10 -5 -10 -7 0 -9 7 -6
16 4 10 0 15 -12 13 -9 -1 -19 0 -22 1 -14 5 -49 6 -45 0 6 -10 -89 -6 -97 5
-5 6 -8 6 -8 -1 0 -9 -35 -16 -145 -28 -11 -2 -28 -6 -37 -10 -10 -5 -25 -5
-34 -2 -10 4 -13 2 -8 -6 5 -8 0 -9 -15 -5 -13 3 -20 3 -17 0 9 -9 -91 -52
-132 -57 -35 -5 -35 -5 -16 14 24 23 212 87 307 105 110 20 214 18 280 -4z
m-284 -85 c-2 -3 -16 -7 -30 -9 -14 -3 -43 -14 -64 -26 -21 -11 -42 -18 -47
-15 -5 3 -16 0 -25 -8 -9 -7 -24 -14 -35 -14 -10 -1 -19 -2 -20 -3 -11 -9 -48
-9 -48 0 0 6 8 9 18 8 9 -2 32 5 49 14 18 10 35 17 38 17 3 1 10 2 17 5 102
34 163 46 147 31z m4744 -53 c-7 -2 -19 -2 -25 0 -7 3 -2 5 12 5 14 0 19 -2
13 -5z m-5029 -38 c-6 -14 -18 -19 -28 -12 -2 1 -13 -6 -24 -16 -12 -11 -25
-16 -30 -13 -5 3 -17 -3 -27 -14 -10 -11 -23 -20 -29 -20 -6 0 -4 5 4 10 9 6
10 10 3 10 -6 0 -18 -8 -25 -17 -16 -22 -75 -32 -62 -11 4 7 -2 5 -13 -4 -24
-22 -57 -24 -50 -4 4 10 1 13 -9 9 -7 -3 -14 0 -14 5 0 6 24 16 53 22 28 6 95
24 147 40 115 34 111 34 104 15z m382 -20 c-3 -9 0 -15 10 -15 8 0 12 -5 8
-11 -4 -7 -11 -6 -21 4 -9 8 -12 20 -9 26 10 16 19 13 12 -4z m285 -14 c5 9 9
10 9 2 0 -6 -7 -18 -15 -26 -8 -8 -11 -17 -8 -21 4 -3 -2 -6 -12 -6 -10 0 -24
8 -32 18 -8 9 -12 12 -9 6 3 -7 -1 -14 -9 -18 -8 -3 -14 -1 -12 4 1 5 -7 15
-18 23 -19 15 -18 16 18 22 20 4 44 5 52 1 8 -3 16 0 16 7 1 7 4 3 6 -7 4 -15
7 -16 14 -5z m-203 0 c2 0 -4 -8 -13 -18 -14 -14 -18 -14 -26 -2 -14 22 -11
26 14 24 12 -1 23 -3 25 -4z m37 -21 c5 -7 11 -8 18 -1 8 6 18 5 29 -3 25 -18
17 -21 -41 -18 -41 3 -48 6 -38 18 15 16 24 17 32 4z m4468 -37 c-7 -2 -19 -2
-25 0 -7 3 -2 5 12 5 14 0 19 -2 13 -5z m-5213 -33 c0 -5 -2 -10 -4 -10 -3 0
-8 5 -11 10 -3 6 -1 10 4 10 6 0 11 -4 11 -10z m874 -34 c-3 -9 -11 -13 -17
-9 -6 3 -7 1 -3 -5 11 -18 -5 -62 -23 -62 -14 0 -14 -2 -1 -10 11 -8 8 -9 -15
-6 -16 2 -38 5 -48 5 -10 1 -16 5 -13 10 3 4 18 7 33 5 l28 -4 -27 11 c-16 6
-28 15 -28 20 0 5 -8 9 -17 9 -14 0 -15 -2 -4 -9 8 -5 9 -11 3 -15 -5 -3 -12
1 -16 9 -3 8 -10 15 -16 15 -6 0 -8 -4 -5 -10 3 -5 -1 -10 -9 -10 -13 0 -14 3
-4 19 6 10 17 17 24 14 8 -3 27 5 43 16 33 24 46 27 35 9 -6 -9 -3 -9 9 0 9 8
21 11 26 7 6 -3 19 -2 28 4 22 12 25 9 17 -13z m-154 -105 c0 -5 -7 -12 -16
-15 -14 -5 -15 -4 -4 9 14 17 20 19 20 6z m90 2 c0 -1 -14 -9 -30 -18 -23 -12
-30 -12 -28 -3 2 7 6 15 10 18 7 6 48 8 48 3z"/>
<path d="M4923 8528 c-11 -19 -13 -39 -2 -32 5 3 7 9 4 14 -3 5 3 13 12 19 10
6 13 11 6 11 -6 0 -15 -6 -20 -12z"/>
<path d="M4850 8496 c0 -9 7 -16 16 -16 17 0 14 22 -4 28 -7 2 -12 -3 -12 -12z"/>
<path d="M4805 8380 c-3 -5 -1 -10 4 -10 6 0 11 5 11 10 0 6 -2 10 -4 10 -3 0
-8 -4 -11 -10z"/>
<path d="M4761 8343 c-10 -26 -10 -27 4 -9 8 11 15 23 15 28 0 15 -7 8 -19
-19z"/>
<path d="M4985 8331 c-3 -5 0 -13 6 -17 8 -5 9 -3 4 6 -6 10 -4 12 9 7 10 -4
15 -3 11 3 -8 13 -22 13 -30 1z"/>
<path d="M4726 8313 c-6 -14 -5 -15 5 -6 7 7 10 15 7 18 -3 3 -9 -2 -12 -12z"/>
<path d="M4650 8248 c-25 -22 -36 -34 -26 -27 11 8 21 12 24 10 2 -1 17 11 33
28 40 44 22 38 -31 -11z"/>
<path d="M4556 8218 c3 -5 10 -6 15 -3 13 9 11 12 -6 12 -8 0 -12 -4 -9 -9z"/>
<path d="M4630 8121 c0 -7 -5 -9 -12 -5 -7 4 -8 3 -4 -4 4 -7 1 -12 -9 -12 -8
0 -18 -7 -21 -15 -4 -8 -11 -12 -17 -8 -6 4 -7 1 -2 -7 6 -10 4 -12 -9 -7 -9
4 -15 3 -12 -2 3 -5 -4 -11 -15 -14 -14 -4 -20 -11 -16 -21 4 -10 1 -13 -8
-10 -8 3 -19 -4 -26 -18 -7 -13 -27 -39 -46 -58 -18 -19 -33 -38 -33 -41 0 -4
-6 -14 -14 -21 -7 -8 -21 -28 -29 -45 -14 -26 -14 -31 -2 -29 8 1 18 6 22 11
4 4 2 5 -4 1 -24 -14 -13 12 19 43 17 17 28 31 23 31 -5 0 10 14 33 32 30 23
40 37 36 50 -3 10 0 18 6 18 6 0 8 -4 5 -10 -3 -5 -1 -10 5 -10 6 0 13 7 16
15 4 8 10 13 14 10 4 -3 7 3 6 13 0 9 4 16 11 15 6 -2 14 6 18 16 3 10 14 21
24 24 21 5 57 54 47 64 -3 3 -6 1 -6 -6z"/>
<path d="M4475 7879 c-4 -6 -5 -12 -2 -15 2 -3 7 2 10 11 7 17 1 20 -8 4z"/>
<path d="M4331 7761 c-19 -14 -21 -20 -10 -26 8 -5 11 -5 7 0 -4 4 3 16 15 26
29 24 19 24 -12 0z"/>
<path d="M5250 8355 c0 -9 6 -12 17 -8 12 5 14 3 8 -8 -7 -12 -5 -12 6 -1 12
11 12 14 -1 22 -21 14 -30 12 -30 -5z"/>
<path d="M5160 8326 c0 -2 6 -9 13 -15 10 -8 14 -7 14 4 0 8 -6 15 -14 15 -7
0 -13 -2 -13 -4z"/>
<path d="M3910 6120 c-13 -9 -13 -10 0 -10 8 0 22 5 30 10 13 9 13 10 0 10 -8
0 -22 -5 -30 -10z"/>
<path d="M3716 6041 c-4 -5 -2 -12 3 -15 5 -4 12 -2 15 3 4 5 2 12 -3 15 -5 4
-12 2 -15 -3z"/>
<path d="M3840 5950 l-25 -21 28 12 c15 7 27 16 27 21 0 11 -1 10 -30 -12z"/>
<path d="M3721 5937 c-8 -10 -7 -14 4 -14 8 0 15 6 15 14 0 7 -2 13 -4 13 -2
0 -9 -6 -15 -13z"/>
<path d="M3720 5906 c0 -2 7 -7 16 -10 8 -3 12 -2 9 4 -6 10 -25 14 -25 6z"/>
<path d="M3807 5896 c-4 -9 -11 -14 -17 -11 -16 10 -12 -1 6 -15 12 -11 15
-11 12 0 -2 8 2 14 9 15 6 0 15 4 20 9 4 5 3 6 -4 3 -6 -4 -13 -2 -15 5 -3 7
-7 5 -11 -6z"/>
<path d="M3740 5856 c7 -7 13 -7 20 0 6 6 3 10 -10 10 -13 0 -16 -4 -10 -10z"/>
<path d="M3836 5843 c-7 -8 -11 -9 -37 -12 -8 -1 -8 -5 0 -15 11 -13 15 -12
34 7 13 13 22 17 25 9 2 -7 8 -12 14 -12 6 0 6 6 -2 15 -14 17 -23 19 -34 8z"/>
<path d="M3652 5802 c-17 -11 -4 -42 14 -35 10 4 11 9 4 18 -5 6 -7 15 -3 18
9 9 1 8 -15 -1z"/>
<path d="M3780 5800 c0 -5 5 -10 10 -10 6 0 10 5 10 10 0 6 -4 10 -10 10 -5 0
-10 -4 -10 -10z"/>
<path d="M3590 5761 c0 -6 4 -12 8 -15 5 -3 9 1 9 9 0 8 -4 15 -9 15 -4 0 -8
-4 -8 -9z"/>
<path d="M3525 5741 c-6 -11 9 -23 19 -14 9 9 7 23 -3 23 -6 0 -12 -4 -16 -9z"/>
<path d="M3480 5726 c0 -2 8 -10 18 -17 15 -13 16 -12 3 4 -13 16 -21 21 -21
13z"/>
<path d="M3370 5638 c-12 -8 -12 -9 2 -5 9 3 19 1 22 -6 3 -9 5 -9 5 0 1 18
-13 23 -29 11z"/>
<path d="M2979 2554 c18 -8 36 -13 39 -10 9 10 -5 17 -39 21 l-34 3 34 -14z"/>
<path d="M7362 1500 c-25 -11 -56 -72 -66 -133 -7 -35 -5 -37 11 -29 10 5 29
8 43 7 23 -2 76 26 91 48 14 20 19 90 8 103 -13 16 -53 17 -87 4z"/>
<path d="M2200 901 c0 -5 5 -13 10 -16 6 -3 10 -2 10 4 0 5 -4 13 -10 16 -5 3
-10 2 -10 -4z"/>
<path d="M2033 335 c0 -10 6 -14 14 -10 8 3 17 5 19 5 3 0 2 5 -1 10 -10 16
-32 12 -32 -5z"/>
<path d="M2860 206 c6 -6 18 -5 32 1 21 10 21 10 -9 9 -19 -1 -28 -5 -23 -10z"/>
</g>
</svg>
